<svg xmlns="http://www.w3.org/2000/svg" xmlns:xlink="http://www.w3.org/1999/xlink" width="1280" height="640" viewBox="0 0 1280 640">
  <defs>
    <pattern id="grid" width="32" height="32" patternUnits="userSpaceOnUse">
      <path d="M32 0H0V32" fill="none" stroke="#42CDA7" stroke-opacity="0.09" stroke-width="1"/>
    </pattern>
    <filter id="shadow" x="-30%" y="-30%" width="160%" height="180%">
      <feDropShadow dx="0" dy="16" stdDeviation="18" flood-color="#15342C" flood-opacity="0.19"/>
    </filter>
    <clipPath id="classicClip"><rect x="0" y="0" width="240" height="320" rx="6"/></clipPath>
    <clipPath id="dinerClip"><rect x="0" y="0" width="240" height="320" rx="6"/></clipPath>
    <clipPath id="payrollClip"><rect x="0" y="0" width="240" height="320" rx="6"/></clipPath>
  </defs>

  <rect width="1280" height="640" fill="#F5F1E8"/>
  <rect width="1280" height="640" fill="url(#grid)"/>
  <circle cx="1040" cy="310" r="288" fill="#42CDA7" fill-opacity="0.12"/>
  <circle cx="1120" cy="116" r="86" fill="#F2A7B6" fill-opacity="0.19"/>

  <g font-family="-apple-system, BlinkMacSystemFont, 'PingFang SC', 'Microsoft YaHei', Arial, sans-serif">
    <rect x="68" y="70" width="216" height="40" rx="20" fill="#17231F"/>
    <text x="176" y="96" text-anchor="middle" fill="#F8F4EA" font-size="16" font-weight="700" letter-spacing="1.6">OPEN SOURCE · v0.3.0</text>

    <text x="68" y="210" fill="#17231F" font-size="70" font-weight="800" letter-spacing="-2">Codex AI</text>
    <text x="68" y="292" fill="#17231F" font-size="76" font-weight="800" letter-spacing="-2">打工小票</text>

    <rect x="68" y="326" width="62" height="6" rx="3" fill="#42CDA7"/>
    <text x="68" y="376" fill="#41514B" font-size="25" font-weight="500">把本机 Codex 的工作记录，</text>
    <text x="68" y="414" fill="#41514B" font-size="25" font-weight="500">开成一张可以带走的小票。</text>

    <rect x="68" y="468" width="590" height="72" rx="14" fill="#17231F"/>
    <circle cx="101" cy="504" r="7" fill="#42CDA7"/>
    <text x="124" y="512" fill="#F8F4EA" font-size="21" font-family="SFMono-Regular, Menlo, Monaco, Consolas, monospace">npx codex-work-receipt@latest --latest</text>
    <text x="68" y="580" fill="#65736E" font-size="16" font-weight="600" letter-spacing="0.7">LOCAL-FIRST · PRIVACY-FIRST · BILINGUAL</text>
  </g>

  <g filter="url(#shadow)" transform="translate(758 104) rotate(-8 120 160)" font-family="Menlo, Monaco, Consolas, monospace">
    <rect width="240" height="320" rx="6" fill="#FFFEFA"/>
    <text x="120" y="38" text-anchor="middle" fill="#17231F" font-size="15" font-weight="700">AI WORK RECEIPT</text>
    <text x="120" y="57" text-anchor="middle" fill="#65736E" font-size="8" letter-spacing="1.4">CODEX · LOCAL SHIFT</text>
    <path d="M24 76H216M24 100H216M24 168H216M24 222H216" stroke="#17231F" stroke-width="1" stroke-dasharray="4 3"/>
    <text x="25" y="92" fill="#17231F" font-size="9">SESSION</text><text x="215" y="92" text-anchor="end" fill="#17231F" font-size="9">#0037</text>
    <text x="25" y="121" fill="#65736E" font-size="8">ROUNDS</text><text x="215" y="121" text-anchor="end" fill="#17231F" font-size="10">42</text>
    <text x="25" y="143" fill="#65736E" font-size="8">TOOL CALLS</text><text x="215" y="143" text-anchor="end" fill="#17231F" font-size="10">118</text>
    <text x="25" y="160" fill="#65736E" font-size="8">AI SCORE</text><text x="215" y="160" text-anchor="end" fill="#17231F" font-size="10">3,862</text>
    <text x="25" y="192" fill="#17231F" font-size="10" font-weight="700">TODAY'S ROLE</text>
    <text x="25" y="211" fill="#17231F" font-size="13" font-weight="700">TOOL CONDUCTOR</text>
    <g fill="#17231F">
      <rect x="35" y="244" width="3" height="42"/><rect x="42" y="244" width="7" height="42"/><rect x="54" y="244" width="2" height="42"/><rect x="61" y="244" width="5" height="42"/><rect x="72" y="244" width="3" height="42"/><rect x="81" y="244" width="8" height="42"/><rect x="94" y="244" width="2" height="42"/><rect x="101" y="244" width="5" height="42"/><rect x="112" y="244" width="7" height="42"/><rect x="124" y="244" width="3" height="42"/><rect x="132" y="244" width="8" height="42"/><rect x="145" y="244" width="2" height="42"/><rect x="152" y="244" width="6" height="42"/><rect x="164" y="244" width="3" height="42"/><rect x="172" y="244" width="8" height="42"/><rect x="185" y="244" width="2" height="42"/><rect x="192" y="244" width="6" height="42"/>
    </g>
    <text x="120" y="302" text-anchor="middle" fill="#65736E" font-size="7" letter-spacing="1">KEEP SHIPPING</text>
  </g>
  <g filter="url(#shadow)" transform="translate(974 86) rotate(8 120 160)" font-family="Menlo, Monaco, Consolas, monospace">
    <rect width="240" height="320" rx="6" fill="#F5B2BF"/>
    <rect x="18" y="18" width="204" height="284" rx="3" fill="none" stroke="#7A233D" stroke-width="2"/>
    <text x="120" y="48" text-anchor="middle" fill="#7A233D" font-size="15" font-weight="700">LATE NIGHT DINER</text>
    <text x="120" y="67" text-anchor="middle" fill="#7A233D" font-size="8" letter-spacing="1.2">AI SHIFT · OPEN 24/7</text>
    <path d="M34 86H206M34 176H206M34 225H206" stroke="#7A233D" stroke-width="1" stroke-dasharray="3 3"/>
    <text x="36" y="108" fill="#7A233D" font-size="9">PROMPT TURNS</text><text x="204" y="108" text-anchor="end" fill="#7A233D" font-size="10">28</text>
    <text x="36" y="132" fill="#7A233D" font-size="9">TOOL ORDERS</text><text x="204" y="132" text-anchor="end" fill="#7A233D" font-size="10">96</text>
    <text x="36" y="156" fill="#7A233D" font-size="9">OVERTIME</text><text x="204" y="156" text-anchor="end" fill="#7A233D" font-size="10">02:17</text>
    <text x="36" y="199" fill="#7A233D" font-size="11" font-weight="700">TOTAL AI SCORE</text>
    <text x="204" y="218" text-anchor="end" fill="#7A233D" font-size="24" font-weight="700">6,420</text>
    <g fill="#7A233D">
      <rect x="43" y="244" width="4" height="32"/><rect x="51" y="244" width="7" height="32"/><rect x="63" y="244" width="2" height="32"/><rect x="70" y="244" width="5" height="32"/><rect x="80" y="244" width="3" height="32"/><rect x="88" y="244" width="8" height="32"/><rect x="101" y="244" width="3" height="32"/><rect x="109" y="244" width="6" height="32"/><rect x="120" y="244" width="2" height="32"/><rect x="127" y="244" width="8" height="32"/><rect x="140" y="244" width="3" height="32"/><rect x="148" y="244" width="6" height="32"/><rect x="159" y="244" width="2" height="32"/><rect x="166" y="244" width="8" height="32"/><rect x="179" y="244" width="4" height="32"/><rect x="188" y="244" width="6" height="32"/>
    </g>
    <text x="120" y="291" text-anchor="middle" fill="#7A233D" font-size="7" letter-spacing="1">THANK YOU, BOSS</text>
  </g>
  <g filter="url(#shadow)" transform="translate(858 246) rotate(1 120 160)" font-family="Menlo, Monaco, Consolas, monospace">
    <rect width="240" height="320" rx="6" fill="#163B32"/>
    <text x="120" y="40" text-anchor="middle" fill="#94EACD" font-size="16" font-weight="700">AI PAYROLL</text>
    <text x="120" y="61" text-anchor="middle" fill="#D8FFF1" font-size="8" letter-spacing="1.4">NIGHT SHIFT REPORT</text>
    <path d="M24 80H216M24 108H216M24 182H216M24 235H216" stroke="#94EACD" stroke-opacity="0.65" stroke-width="1" stroke-dasharray="4 3"/>
    <text x="25" y="99" fill="#D8FFF1" font-size="9">EMPLOYEE</text><text x="215" y="99" text-anchor="end" fill="#94EACD" font-size="9">GPT-5.6</text>
    <text x="25" y="132" fill="#D8FFF1" font-size="8">TOKENS</text><text x="215" y="132" text-anchor="end" fill="#94EACD" font-size="10">284,920</text>
    <text x="25" y="154" fill="#D8FFF1" font-size="8">TOOLS</text><text x="215" y="154" text-anchor="end" fill="#94EACD" font-size="10">137</text>
    <text x="25" y="174" fill="#D8FFF1" font-size="8">ROUNDS</text><text x="215" y="174" text-anchor="end" fill="#94EACD" font-size="10">51</text>
    <text x="25" y="207" fill="#D8FFF1" font-size="10">AI SCORE</text>
    <text x="215" y="226" text-anchor="end" fill="#94EACD" font-size="27" font-weight="700">8,888</text>
    <g fill="#94EACD">
      <rect x="35" y="253" width="3" height="35"/><rect x="42" y="253" width="7" height="35"/><rect x="54" y="253" width="2" height="35"/><rect x="61" y="253" width="5" height="35"/><rect x="72" y="253" width="3" height="35"/><rect x="81" y="253" width="8" height="35"/><rect x="94" y="253" width="2" height="35"/><rect x="101" y="253" width="5" height="35"/><rect x="112" y="253" width="7" height="35"/><rect x="124" y="253" width="3" height="35"/><rect x="132" y="253" width="8" height="35"/><rect x="145" y="253" width="2" height="35"/><rect x="152" y="253" width="6" height="35"/><rect x="164" y="253" width="3" height="35"/><rect x="172" y="253" width="8" height="35"/><rect x="185" y="253" width="2" height="35"/><rect x="192" y="253" width="6" height="35"/>
    </g>
    <text x="120" y="306" text-anchor="middle" fill="#D8FFF1" font-size="7" letter-spacing="1">CLOCKED OUT</text>
  </g>
</svg>
